# xmcd
# 
# Track frame offsets:
#     150
#     11862
#     24152
#     42550
#     52980
#     69872
#     83962
#     99997
#     114790
#     128922
#     141437
#     155947
# 
# Disc length: 2255
# 
# Revision: 6
# Processed by: cddbd v1.5.2PL0 Copyright (c) Steve Scherf et al.
# Submitted via: BonkEnc v1.0.6
# 
DISCID=9b08cd0c
DTITLE=Amado Batista - Eu Sou Seu Fã
DYEAR=1991
DGENRE=Country
TTITLE0=Império dos Sentidos
TTITLE1=Eu Sou Seu Fã
TTITLE2=Reclamando Sua Ausência
TTITLE3=Outra Canção de Amor
TTITLE4=Princesa
TTITLE5=Como É Bom Amar Você
TTITLE6=Mar de Carinhos
TTITLE7=Um Avião de Mulher
TTITLE8=Cara de Santa
TTITLE9=Morro de Ciúme Dela
TTITLE10=Sua Partida
TTITLE11=I Love You
EXTD=YEAR: 1991
EXTT0=
EXTT1=
EXTT2=
EXTT3=
EXTT4=
EXTT5=
EXTT6=
EXTT7=
EXTT8=
EXTT9=
EXTT10=
EXTT11=
PLAYORDER=
